<?xml version="1.0" encoding="UTF-8" standalone="no"?>
<!-- Created with Inkscape (http://www.inkscape.org/) -->

<svg
   xmlns:dc="http://purl.org/dc/elements/1.1/"
   xmlns:cc="http://creativecommons.org/ns#"
   xmlns:rdf="http://www.w3.org/1999/02/22-rdf-syntax-ns#"
   xmlns:svg="http://www.w3.org/2000/svg"
   xmlns="http://www.w3.org/2000/svg"
   xmlns:sodipodi="http://sodipodi.sourceforge.net/DTD/sodipodi-0.dtd"
   xmlns:inkscape="http://www.inkscape.org/namespaces/inkscape"
   width="145"
   height="30"
   id="svg4388"
   version="1.1"
   inkscape:version="0.48.4 r9939"
   sodipodi:docname="logo.svg">
  <defs
     id="defs4390" />
  <sodipodi:namedview
     id="base"
     pagecolor="#ffffff"
     bordercolor="#666666"
     borderopacity="1.0"
     inkscape:pageopacity="0.0"
     inkscape:pageshadow="2"
     inkscape:zoom="7.9195959"
     inkscape:cx="57.615309"
     inkscape:cy="10.610068"
     inkscape:document-units="px"
     inkscape:current-layer="layer1"
     showgrid="false"
     inkscape:window-width="1920"
     inkscape:window-height="986"
     inkscape:window-x="0"
     inkscape:window-y="25"
     inkscape:window-maximized="1" />
  <metadata
     id="metadata4393">
    <rdf:RDF>
      <cc:Work
         rdf:about="">
        <dc:format>image/svg+xml</dc:format>
        <dc:type
           rdf:resource="http://purl.org/dc/dcmitype/StillImage" />
        <dc:title></dc:title>
      </cc:Work>
    </rdf:RDF>
  </metadata>
  <g
     inkscape:label="Capa 1"
     inkscape:groupmode="layer"
     id="layer1"
     transform="translate(0,-1022.3622)">
    <path
       inkscape:connector-curvature="0"
       id="path4646-4-4-7-2-3-2-8-9-3-1-7"
       d="m 25.736372,1022.3861 c 0.157359,0.1332 0.297212,0.2697 0.439763,0.4122 1.472906,1.5072 2.226279,3.3948 2.226279,5.8268 0,1.5071 -0.303955,2.8134 -0.852077,3.8752 -0.548167,1.0619 -1.301473,1.9675 -2.226189,2.721 -0.890782,0.7879 -2.583628,1.2643 -2.583628,1.2643 l -4.644832,-2.5285 c 0,0 1.884882,-0.888 2.638515,-1.4017 0.787773,-0.5139 1.368707,-1.1289 1.813961,-1.814 0.479511,-0.6851 0.714645,-1.4596 0.714645,-2.4187 0,-1.3016 -0.64892,-2.4665 -1.566586,-3.2431 -1.195226,-1.0113 -2.941603,-1.3176 -4.507469,-1.3193 -1.564839,0 -3.339578,0.3096 -4.534992,1.3193 -0.918624,0.7757 -1.566655,1.8866 -1.566655,3.1882 0,0.9591 0.262618,1.7885 0.742128,2.4736 0.445303,0.6851 1.016884,1.2643 1.016884,1.2643 0,0 0.296997,0.3378 2.336224,1.4017 0.805368,0.4202 2.363647,1.3743 2.363647,1.3743 0.221821,0.1298 0.376708,0.4419 0.247302,0.6595 -0.129936,0.2177 -0.441408,0.3222 -0.659603,0.1924 l -1.868932,-1.1544 c 0.01936,0.1608 0.01936,0.3318 0,0.4948 l 1.676598,0.962 c 0.218008,0.1299 0.239208,0.442 0.10992,0.6596 -0.130002,0.218 -0.38662,0.2398 -0.604628,0.1099 l -1.429244,-0.8246 c -0.02896,0.06 -0.103129,0.1064 -0.137345,0.165 -0.03433,0.059 -0.07126,0.1372 -0.109942,0.1924 l 1.456617,0.8521 c 0.218307,0.1298 0.294205,0.4417 0.164947,0.6595 -0.13001,0.2179 -0.386813,0.2399 -0.604688,0.11 l -1.676524,-0.962 c -0.139458,0.086 -0.342292,0.136 -0.494782,0.1925 l 1.951422,1.1267 c 0.218306,0.13 0.294205,0.4417 0.164917,0.6597 -0.09726,0.1634 -0.28964,0.2169 -0.467268,0.1924 -0.05979,-0.01 -0.138714,-0.022 -0.192335,-0.055 l -4.699804,-2.7759 c 0,0 -0.4287492,-0.2291 -1.3193019,-1.017 -0.924857,-0.7535 -1.6779983,-1.6591 -2.2262515,-2.7209 -0.5480146,-1.0619 -0.7971331,-2.3682 -0.7971331,-3.8754 0,-2.432 0.6984195,-4.402 2.171351,-5.9091 -4.8982966,3.0294 -8.19038289,8.4119 -8.19038289,14.5944 0,6.3208 3.43833619,11.8274 8.52020279,14.8141 -0.1065024,-0.094 -0.2308829,-0.1758 -0.3298199,-0.2748 -1.4729315,-1.5072 -2.171351,-3.4772 -2.171351,-5.9092 0,-1.5071 0.2217538,-2.7859 0.7695973,-3.8478 0.548469,-1.0619 1.3288409,-1.9674 2.2537873,-2.721 0.8905527,-0.7878 2.6385589,-1.2642 2.6385589,-1.2642 l 4.6448,2.5285 c 0,0 -1.885038,0.8605 -2.63853,1.3743 -0.787721,0.5138 -1.423607,1.1289 -1.86891,1.814 -0.47951,0.685 -0.742128,1.5145 -0.742128,2.4735 0,1.3017 0.703683,2.4117 1.621645,3.1882 1.195041,1.0113 2.914142,1.4 4.480002,1.4017 1.564823,0 3.311781,-0.392 4.507469,-1.4017 0.918528,-0.7757 1.566586,-1.8865 1.566586,-3.1882 0,-0.959 -0.235205,-1.7884 -0.714645,-2.4735 -0.445254,-0.6851 -1.016977,-1.2644 -1.016977,-1.2644 0,0 -0.324414,-0.3102 -2.363618,-1.3742 -0.805577,-0.4202 -2.336253,-1.4017 -2.336253,-1.4017 -0.227986,-0.1299 -0.321711,-0.442 -0.192334,-0.6596 0.129891,-0.2176 0.386723,-0.2948 0.604627,-0.1649 l 1.92396,1.1268 c -0.01951,-0.1606 -0.0554,-0.3041 -0.0554,-0.4672 l -1.621534,-0.962 c -0.218307,-0.1299 -0.321742,-0.4695 -0.192357,-0.687 0.129727,-0.2181 0.387066,-0.2399 0.604627,-0.11 l 1.456707,0.852 c 0.03068,-0.06 0.07479,-0.1337 0.109994,-0.1924 0.03522,-0.059 0.09859,-0.1098 0.137456,-0.1649 l -1.456706,-0.852 c -0.218426,-0.1299 -0.321666,-0.4419 -0.192356,-0.6597 0.129957,-0.2177 0.441728,-0.2672 0.659595,-0.1374 l 1.703949,0.9894 c 0.139503,-0.086 0.2599,-0.136 0.412323,-0.1923 l -1.923938,-1.1544 c -0.218001,-0.1298 -0.23923,-0.3866 -0.10992,-0.6046 0.05011,-0.081 0.08357,-0.1809 0.164925,-0.2199 0.04043,-0.019 0.07126,-0.03 0.10992,-0.027 0.03872,0 0.09312,0.022 0.137382,0.027 0.05979,0.01 0.138804,0.022 0.192431,0.055 l 4.754773,2.8308 c 0,0 0.373731,0.1742 1.264373,0.962 0.92481,0.7536 1.678022,1.6591 2.226189,2.7209 0.548121,1.0618 0.852078,2.3408 0.852078,3.8478 0,2.432 -0.75335,4.4022 -2.226282,5.9093 -0.124187,0.1242 -0.249353,0.2408 -0.384808,0.3572 5.146894,-2.9703 8.602616,-8.527 8.602616,-14.8965 0,-6.3927 -3.479861,-11.962 -8.657565,-14.9242 z"
       style="color:#000000;fill:#ffffff;fill-opacity:1;fill-rule:nonzero;stroke:none;stroke-width:1;marker:none;visibility:visible;display:inline;overflow:visible;enable-background:accumulate"
       inkscape:export-filename="/home/jovencoda/Documentos/PDG/logo3.png"
       inkscape:export-xdpi="90"
       inkscape:export-ydpi="90" />
    <g
       style="fill:#ffffff;stroke:none;display:inline"
       transform="matrix(0.72751001,0,0,0.72751001,19.418415,997.79857)"
       id="g13851-4-33-8-1-9-0-5-7-5-0-8"
       inkscape:export-filename="/home/jovencoda/Documentos/PDG/prototipo1/proyecto.png"
       inkscape:export-xdpi="88.652916"
       inkscape:export-ydpi="88.652916">
      <text
         sodipodi:linespacing="125%"
         id="text3884-6-4-2-0-8-332-51-9-4-1-2-5-9-6-4"
         y="64.927666"
         x="38.832348"
         style="font-size:8.84551811px;font-style:normal;font-variant:normal;font-weight:normal;font-stretch:normal;line-height:125%;letter-spacing:0px;word-spacing:0px;fill:#ffffff;fill-opacity:1;stroke:none;font-family:Ubuntu;-inkscape-font-specification:Ubuntu"
         xml:space="preserve"><tspan
           style="font-size:31.84386826px;fill:#ffffff;fill-opacity:1"
           y="64.927666"
           x="38.832348"
           id="tspan3886-1-1-6-5-8-4-6-2-6-0-6-0-3-0-2"
           sodipodi:role="line">troca.</tspan></text>
      <text
         sodipodi:linespacing="125%"
         id="text3087-9-9-0-1-9-4-8-9-0-0-9-7-6-7-7-1"
         y="65.038673"
         x="121.5813"
         style="font-size:25.24743271px;font-style:normal;font-variant:normal;font-weight:300;font-stretch:normal;text-indent:0;text-align:start;text-decoration:none;line-height:125%;letter-spacing:0px;word-spacing:0px;text-transform:none;direction:ltr;block-progression:tb;writing-mode:lr-tb;text-anchor:start;baseline-shift:baseline;color:#000000;fill:#ffffff;fill-opacity:1;fill-rule:nonzero;stroke:none;stroke-width:0.87332928;marker:none;visibility:visible;display:inline;overflow:visible;enable-background:accumulate;font-family:Ubuntu;-inkscape-font-specification:Ubuntu Light"
         xml:space="preserve"><tspan
           style="font-size:25.24743271px;font-style:normal;font-variant:normal;font-weight:300;font-stretch:normal;text-indent:0;text-align:start;text-decoration:none;line-height:125%;letter-spacing:0px;word-spacing:0px;text-transform:none;direction:ltr;block-progression:tb;writing-mode:lr-tb;text-anchor:start;baseline-shift:baseline;color:#000000;fill:#ffffff;fill-opacity:1;fill-rule:nonzero;stroke:none;marker:none;visibility:visible;display:inline;overflow:visible;enable-background:accumulate;font-family:Ubuntu;-inkscape-font-specification:Ubuntu Light"
           y="65.038673"
           x="121.5813"
           id="tspan3089-1-7-4-6-2-4-0-1-0-9-3-7-1-9-7-8"
           sodipodi:role="line">beta</tspan></text>
    </g>
  </g>
</svg>
